#!OML:ASF F:\VICON\USERDATA\INSTALL\rory3\rory3.ASF
:FULLY-SPECIFIED
:DEGREES
502
root -5.3928 18.3738 3.74217 183.822 -67.15 -174.103
lowerback 12.9191 -1.35007 -6.86437
upperback 5.53434 -3.35928 -6.51769
thorax -1.43111 -1.94011 -2.49458
lowerneck -11.3921 3.71701 -6.11006
upperneck 24.1413 4.91712 3.75922
head 9.18597 1.88584 2.81856
rclavicle 8.11041e-014 1.39944e-013
rhumerus 26.0426 44.9512 -60.9391
rradius 125.102
rwrist -11.8621
rhand -35.6531 -18.0176
rfingers 7.12502
rthumb -8.77505 312.185
lclavicle 8.11041e-014 1.39944e-013
lhumerus 11.526 -32.3992 91.9472
lradius 31.0744
lwrist 6.62808
lhand -31.7829 7.05261
lfingers 7.12502
lthumb -5.03909 36.9727
rfemur -31.9969 20.3046 10.252
rtibia 43.5935
rfoot -16.071 -4.59134
rtoes -4.40381
lfemur -24.761 9.5035 -20.582
ltibia 38.6572
lfoot -19.9217 6.87185
ltoes 0.123932
503
root -5.39498 18.3702 3.74186 183.516 -67.2092 -173.772
lowerback 13.0178 -1.41116 -6.96316
upperback 5.53792 -3.45884 -6.46652
thorax -1.47101 -1.98938 -2.36873
lowerneck -11.6589 3.69075 -6.40335
upperneck 24.1755 4.94767 3.85556
head 9.23544 1.88649 2.91234
rclavicle 4.92986e-014 6.99722e-014
rhumerus 27.0151 44.5955 -60.3913
rradius 124.73
rwrist -12.3159
rhand -35.3583 -18.1662
rfingers 7.12502
rthumb -8.49055 312.024
lclavicle 4.92986e-014 6.99722e-014
lhumerus 11.8748 -32.2027 92.2833
lradius 31.0157
lwrist 6.8819
lhand -32.1386 6.87231
lfingers 7.12502
lthumb -5.38257 36.784
rfemur -32.1859 20.4277 10.1263
rtibia 43.7285
rfoot -15.8385 -4.00413
rtoes -4.59856
lfemur -24.844 9.71885 -20.4449
ltibia 38.7998
lfoot -19.9384 6.50131
ltoes 0.0800609
504
root -5.39631 18.3654 3.74047 183.296 -67.269 -173.497
lowerback 13.0893 -1.4726 -7.0405
upperback 5.56018 -3.55806 -6.47188
thorax -1.48105 -2.04047 -2.31589
lowerneck -11.9185 3.67858 -6.48919
upperneck 24.1585 4.97904 3.8592
head 9.27453 1.89856 2.93856
rclavicle -3.81667e-014 3.49861e-014
rhumerus 27.9671 44.1256 -59.9104
rradius 124.38
rwrist -12.7861
rhand -35.3217 -18.4283
rfingers 7.12502
rthumb -8.45528 311.761
lclavicle -3.81667e-014 3.49861e-014
lhumerus 12.1967 -32.0154 92.4849
lradius 31.0965
lwrist 7.11423
lhand -31.765 6.91046
lfingers 7.12502
lthumb -5.02185 36.831
rfemur -32.4053 20.6951 9.95502
rtibia 43.8541
rfoot -15.6903 -3.62485
rtoes -4.82613
lfemur -24.9981 9.84384 -20.3296
ltibia 39.0067
lfoot -19.949 6.18377
ltoes 0.403446
505
root -5.39841 18.3661 3.73765 183.016 -67.318 -173.16
lowerback 13.2055 -1.5581 -7.09529
upperback 5.53751 -3.69303 -6.48071
thorax -1.56376 -2.1056 -2.27073
lowerneck -12.0934 3.70579 -6.46353
upperneck 24.1425 5.05911 3.74387
head 9.30247 1.92803 2.90779
rclavicle 4.13472e-014 3.18055e-015
rhumerus 28.7595 43.7743 -59.495
rradius 124.128
rwrist -13.1755
rhand -35.6367 -18.8938
rfingers 7.12502
rthumb -8.75919 311.308
lclavicle 4.13472e-014 3.18055e-015
lhumerus 12.3957 -31.8129 92.6564
lradius 31.2051
lwrist 7.22048
lhand -31.4683 7.12077
lfingers 7.12502
lthumb -4.73532 37.0479
rfemur -32.5796 21.2668 9.7535
rtibia 43.8615
rfoot -15.6211 -3.54205
rtoes -5.19977
lfemur -25.1283 9.82311 -20.1746
ltibia 39.2043
lfoot -19.9307 6.16851
ltoes 0.528966
506
root -5.39807 18.3524 3.73222 182.863 -67.3736 -172.995
lowerback 13.3868 -1.61592 -7.25862
upperback 5.49704 -3.81113 -6.44675
thorax -1.68997 -2.16174 -2.11929
lowerneck -12.1807 3.69333 -6.52369
upperneck 24.0734 5.0959 3.63153
head 9.29569 1.93152 2.88384
rclavicle -3.65764e-014 1.27222e-014
rhumerus 29.4247 43.4264 -59.1016
rradius 123.896
rwrist -13.4816
rhand -35.886 -18.9553
rfingers 7.12502
rthumb -8.99983 311.257
lclavicle -3.65764e-014 1.27222e-014
lhumerus 12.5759 -31.6613 92.8955
lradius 31.2885
lwrist 7.25931
lhand -31.4493 7.23305
lfingers 7.12502
lthumb -4.71694 37.1605
rfemur -32.7093 20.0846 9.80395
rtibia 43.8492
rfoot -15.0619 -1.97611
rtoes -5.854
lfemur -25.276 9.86152 -20.0853
ltibia 39.4608
lfoot -19.9009 6.06298
ltoes 0.517053
507
root -5.39919 18.3622 3.72893 182.594 -67.4736 -172.657
lowerback 13.5162 -1.65899 -7.19693
upperback 5.46635 -3.87846 -6.47293
thorax -1.79765 -2.19085 -2.16458
lowerneck -12.3217 3.62339 -6.55232
upperneck 24.0813 5.01818 3.64458
head 9.32856 1.89624 2.88964
rclavicle -1.145e-013 -9.54166e-014
rhumerus 29.8394 42.8533 -58.9651
rradius 123.685
rwrist -13.9347
rhand -35.8196 -18.8489
rfingers 7.12502
rthumb -8.93577 311.36
lclavicle -1.145e-013 -9.54166e-014
lhumerus 12.7644 -31.7809 92.9985
lradius 31.4272
lwrist 7.47171
lhand -30.8524 7.24684
lfingers 7.12502
lthumb -4.14063 37.1863
rfemur -32.7712 20.8038 9.56709
rtibia 43.6786
rfoot -15.1205 -2.06291
rtoes -5.7743
lfemur -25.4731 9.90964 -19.9369
ltibia 39.6609
lfoot -19.8193 5.93453
ltoes 0.0509326
508
root -5.40035 18.3638 3.72376 182.141 -67.6082 -172.114
lowerback 13.6161 -1.72364 -6.96502
upperback 5.46397 -3.95237 -6.5647
thorax -1.87622 -2.22373 -2.37399
lowerneck -12.4194 3.54042 -6.482
upperneck 24.0083 4.88834 3.707
head 9.32858 1.85508 2.88711
rclavicle -3.65764e-014 5.40694e-014
rhumerus 30.1054 42.1826 -59.019
rradius 123.561
rwrist -14.4622
rhand -35.5319 -19.0801
rfingers 7.12502
rthumb -8.65807 311.117
lclavicle -3.65764e-014 5.40694e-014
lhumerus 12.9202 -32.1664 92.824
lradius 31.7459
lwrist 7.73158
lhand -30.3253 7.35717
lfingers 7.12502
lthumb -3.63157 37.306
rfemur -32.798 20.2834 9.63708
rtibia 43.4937
rfoot -14.9214 -1.03463
rtoes -4.94541
lfemur -25.6858 9.89335 -19.6897
ltibia 39.8557
lfoot -19.6994 5.89487
ltoes -0.8459
509
root -5.4017 18.3628 3.71748 181.754 -67.7355 -171.641
lowerback 13.6975 -1.79887 -6.73329
upperback 5.47631 -4.04249 -6.70497
thorax -1.93363 -2.26689 -2.6335
lowerneck -12.4697 3.46573 -6.24879
upperneck 23.8695 4.76279 3.64072
head 9.30522 1.81852 2.81057
rclavicle -1.59028e-014 2.8625e-014
rhumerus 30.2529 41.5246 -59.1704
rradius 123.509
rwrist -14.8662
rhand -35.2761 -19.28
rfingers 7.12502
rthumb -8.4112 310.907
lclavicle -1.59028e-014 2.8625e-014
lhumerus 13.1366 -32.7126 92.3814
lradius 32.102
lwrist 8.01942
lhand -30.3493 7.51507
lfingers 7.12502
lthumb -3.65482 37.4635
rfemur -32.7808 20.0084 9.635
rtibia 43.2109
rfoot -14.8572 -0.155002
rtoes -4.05947
lfemur -25.8107 9.89656 -19.4674
ltibia 39.9339
lfoot -19.556 5.8053
ltoes -1.29842
510
root -5.4025 18.3625 3.71069 181.578 -67.8136 -171.357
lowerback 13.7707 -1.83662 -6.55535
upperback 5.43737 -4.09373 -6.86282
thorax -2.03907 -2.28956 -2.88654
lowerneck -12.4762 3.38446 -6.01864
upperneck 23.8036 4.60465 3.63535
head 9.29817 1.76884 2.75251
rclavicle 1.59028e-015 -5.08889e-014
rhumerus 30.2181 40.8973 -59.4338
rradius 123.432
rwrist -15.2287
rhand -35.0563 -19.2404
rfingers 7.12502
rthumb -8.19911 310.939
lclavicle 1.59028e-015 -5.08889e-014
lhumerus 13.3189 -33.2023 92.0079
lradius 32.3043
lwrist 8.22794
lhand -30.3884 7.35633
lfingers 7.12502
lthumb -3.69256 37.3041
rfemur -32.8337 19.9359 9.48492
rtibia 42.91
rfoot -14.7473 0.579192
rtoes -3.59926
lfemur -25.9483 9.91163 -19.3281
ltibia 39.9711
lfoot -19.4077 5.71374
ltoes -1.94795
511
root -5.40336 18.3657 3.70421 181.201 -67.8742 -170.9
lowerback 13.9007 -1.88273 -6.27611
upperback 5.37984 -4.14483 -6.98317
thorax -2.19969 -2.30899 -3.15321
lowerneck -12.4948 3.32244 -6.03657
upperneck 23.8161 4.47482 3.83805
head 9.30576 1.72937 2.81232
rclavicle -2.70347e-014 -1.24042e-013
rhumerus 30.1398 40.3262 -59.681
rradius 123.403
rwrist -15.7682
rhand -35.0928 -19.2823
rfingers 7.12502
rthumb -8.2343 310.898
lclavicle -2.70347e-014 -1.24042e-013
lhumerus 13.427 -33.5724 91.7504
lradius 32.4141
lwrist 8.29717
lhand -30.3213 7.42191
lfingers 7.12502
lthumb -3.62773 37.3708
rfemur -32.8143 19.962 9.41464
rtibia 42.5447
rfoot -14.5674 1.16846
rtoes -3.18427
lfemur -25.9939 9.87204 -19.1038
ltibia 39.946
lfoot -19.2468 5.6535
ltoes -2.40471
